<svg width="30" height="38" viewBox="0 0 30 38" fill="none" xmlns="http://www.w3.org/2000/svg">
<path d="M14.99 0C12.4601 0 10.0338 0.99442 8.24491 2.7645C6.456 4.53458 5.451 6.93532 5.451 9.43859V13.9328H0V37.3032H29.98V13.9338H24.529V9.43859C24.529 8.1991 24.2823 6.97174 23.8029 5.8266C23.3235 4.68146 22.6209 3.64095 21.7351 2.7645C20.8493 1.88804 19.7977 1.1928 18.6404 0.71847C17.4831 0.244136 16.2427 0 14.99 0ZM29.072 14.8322V36.4027H0.908001V14.8322H29.072ZM6.36 13.9338V9.43859C6.38447 7.18965 7.30452 5.04105 8.9204 3.4593C10.5363 1.87756 12.7175 0.990366 14.9905 0.990366C17.2635 0.990366 19.4447 1.87756 21.0606 3.4593C22.6765 5.04105 23.5965 7.18965 23.621 9.43859V13.9328L6.36 13.9338Z" fill="black"/>
<path d="M14.99 29.6642C15.7985 29.6642 16.5889 29.4269 17.2612 28.9825C17.9334 28.538 18.4574 27.9063 18.7668 27.1671C19.0762 26.428 19.1572 25.6147 18.9994 24.8301C18.8417 24.0454 18.4523 23.3247 17.8806 22.759C17.3089 22.1933 16.5805 21.808 15.7875 21.6519C14.9945 21.4959 14.1726 21.576 13.4256 21.8821C12.6786 22.1883 12.0401 22.7067 11.5909 23.3719C11.1417 24.0371 10.902 24.8192 10.902 25.6192C10.902 26.692 11.3327 27.7208 12.0993 28.4794C12.866 29.238 13.9058 29.6642 14.99 29.6642ZM14.99 22.4727C15.6189 22.4727 16.2337 22.6572 16.7567 23.003C17.2796 23.3487 17.6872 23.8401 17.9279 24.4151C18.1686 24.99 18.2316 25.6227 18.1089 26.233C17.9862 26.8434 17.6833 27.4041 17.2386 27.8441C16.7938 28.2842 16.2272 28.5838 15.6104 28.7053C14.9935 28.8267 14.3541 28.7644 13.773 28.5262C13.192 28.288 12.6953 27.8847 12.3459 27.3673C11.9965 26.8499 11.81 26.2415 11.81 25.6192C11.81 24.7847 12.145 23.9843 12.7414 23.3943C13.3377 22.8042 14.1466 22.4727 14.99 22.4727Z" fill="black"/>
</svg>
