<svg width="37" height="21" viewBox="0 0 37 21" fill="none" xmlns="http://www.w3.org/2000/svg">
<path d="M0.612012 8.17693H3.67501V4.5416H1.83701C1.67457 4.5416 1.51877 4.47775 1.40391 4.36409C1.28904 4.25044 1.22451 4.09628 1.22451 3.93555C1.22451 3.77481 1.28904 3.62066 1.40391 3.50701C1.51877 3.39335 1.67457 3.3295 1.83701 3.3295H3.67501V1.51084C3.67021 1.43008 3.68275 1.34922 3.71181 1.2736C3.74087 1.19798 3.78578 1.1293 3.8436 1.0721C3.90141 1.01489 3.97082 0.970447 4.04725 0.941696C4.12367 0.912944 4.20539 0.900535 4.28701 0.905285H25.477C26.1898 0.911484 26.8717 1.19442 27.3757 1.69317C27.8798 2.19193 28.1657 2.8666 28.172 3.57192V5.74876H31.234C31.356 5.74876 31.601 5.86947 31.724 5.86947L36.624 10.7179C36.624 10.8386 36.746 11.081 36.746 11.2027V16.0512C36.7508 16.1319 36.7383 16.2128 36.7092 16.2884C36.6802 16.364 36.6352 16.4327 36.5774 16.4899C36.5196 16.5471 36.4502 16.5916 36.3738 16.6203C36.2973 16.6491 36.2156 16.6615 36.134 16.6567H34.3C34.2841 17.6106 33.89 18.5201 33.2026 19.1891C32.5152 19.8581 31.5897 20.2331 30.6255 20.2331C29.6613 20.2331 28.7358 19.8581 28.0484 19.1891C27.361 18.5201 26.9669 17.6106 26.951 16.6567H14.7C14.7098 17.1373 14.6214 17.6148 14.4402 18.0608C14.259 18.5067 13.9887 18.9119 13.6454 19.252C13.3022 19.5921 12.8931 19.8601 12.4426 20.04C11.9922 20.2199 11.5097 20.308 11.024 20.299C10.5389 20.3078 10.057 20.2198 9.60712 20.0402C9.15721 19.8606 8.7485 19.5931 8.40545 19.2537C8.06239 18.9142 7.79203 18.5098 7.61051 18.0646C7.429 17.6194 7.34006 17.1426 7.34901 16.6627H4.28701C4.20539 16.6674 4.12367 16.655 4.04725 16.6262C3.97082 16.5975 3.90141 16.5531 3.8436 16.4958C3.78578 16.4386 3.74087 16.37 3.71181 16.2943C3.68275 16.2187 3.67021 16.1379 3.67501 16.0571V13.0253H1.83701C1.67457 13.0253 1.51877 12.9615 1.40391 12.8478C1.28904 12.7342 1.22451 12.58 1.22451 12.4193C1.22451 12.2586 1.28904 12.1044 1.40391 11.9908C1.51877 11.8771 1.67457 11.8132 1.83701 11.8132H3.67501V9.38903H0.612012C0.449567 9.38903 0.293775 9.32518 0.178909 9.21152C0.0640429 9.09787 -0.000488281 8.94372 -0.000488281 8.78298C-0.000488281 8.62225 0.0640429 8.46809 0.178909 8.35444C0.293775 8.24078 0.449567 8.17693 0.612012 8.17693ZM35.521 15.4506V11.4491L30.989 6.96482H28.172V13.9901H28.294C28.416 13.8694 28.539 13.8694 28.539 13.7477C28.661 13.7477 28.661 13.6269 28.784 13.6269C28.8323 13.5811 28.8903 13.5465 28.9537 13.5256C29.0172 13.5047 29.0846 13.4981 29.151 13.5062C29.273 13.5062 29.273 13.3855 29.396 13.3855C29.519 13.3855 29.641 13.2648 29.763 13.2648H30.008C30.13 13.0224 30.375 13.0224 30.62 13.0224H31.477C31.5434 13.0142 31.6108 13.0209 31.6743 13.0417C31.7378 13.0626 31.7958 13.0972 31.844 13.1431C31.966 13.1431 31.966 13.1431 32.089 13.2638C32.211 13.2638 32.334 13.3845 32.456 13.3845C32.578 13.3845 32.578 13.5052 32.701 13.5052C32.823 13.626 32.946 13.626 32.946 13.7477C32.9621 13.7474 32.9781 13.7503 32.993 13.7563C33.0079 13.7623 33.0215 13.7712 33.0329 13.7824C33.0443 13.7937 33.0532 13.8071 33.0593 13.8219C33.0653 13.8366 33.0683 13.8525 33.068 13.8684C33.068 13.9891 33.19 14.1108 33.313 14.2315L33.435 14.3522C33.557 14.4729 33.557 14.5947 33.68 14.5947C33.7464 14.6601 33.7893 14.7452 33.802 14.8371C33.8483 14.8848 33.8833 14.9422 33.9044 15.005C33.9256 15.0678 33.9322 15.1345 33.924 15.2002C33.924 15.3209 33.924 15.3209 34.046 15.4426V15.5633H35.516L35.521 15.4506ZM30.621 19.0869C31.2702 19.085 31.8923 18.829 32.3514 18.3748C32.8104 17.9206 33.0692 17.305 33.071 16.6627V16.1778C32.9477 15.6264 32.6375 15.1333 32.1918 14.7805C31.7461 14.4277 31.1918 14.2364 30.621 14.2384H30.254C29.7695 14.3324 29.3243 14.567 28.9752 14.9125C28.6261 15.2579 28.3889 15.6984 28.294 16.1778V16.6627C28.271 16.9764 28.3144 17.2915 28.4216 17.5878C28.5287 17.884 28.6972 18.1548 28.9163 18.3828C29.1354 18.6108 29.4002 18.7911 29.6937 18.912C29.9873 19.0329 30.3031 19.0918 30.621 19.0849V19.0869ZM11.021 19.0869C11.6702 19.085 12.2923 18.829 12.7514 18.3748C13.2104 17.9206 13.4692 17.305 13.471 16.6627V16.1778C13.3477 15.6264 13.0375 15.1333 12.5918 14.7805C12.1461 14.4277 11.5918 14.2364 11.021 14.2384H10.654C10.1695 14.3324 9.72431 14.567 9.3752 14.9125C9.0261 15.2579 8.78895 15.6984 8.69401 16.1778V16.6627C8.67093 16.9767 8.71445 17.2921 8.82179 17.5885C8.92913 17.8849 9.09791 18.1559 9.31731 18.3839C9.5367 18.612 9.80187 18.7922 10.0958 18.9129C10.3897 19.0336 10.7059 19.0922 11.024 19.0849L11.021 19.0869ZM4.90001 11.8132H6.73701C6.89946 11.8132 7.05525 11.8771 7.17011 11.9908C7.28498 12.1044 7.34951 12.2586 7.34951 12.4193C7.34951 12.58 7.28498 12.7342 7.17011 12.8478C7.05525 12.9615 6.89946 13.0253 6.73701 13.0253H4.90001V15.4506H7.59401C7.59401 15.3298 7.71601 15.3298 7.71601 15.2081C7.71601 15.0864 7.83801 14.9657 7.83801 14.845C7.83801 14.7243 7.96001 14.7243 7.96001 14.6026L8.20501 14.3601C8.20501 14.2394 8.32701 14.2394 8.32701 14.1177L8.57201 13.8753C8.69401 13.8753 8.69401 13.7546 8.81701 13.7546L9.06201 13.5122C9.18401 13.5122 9.18401 13.3915 9.30701 13.3915C9.43001 13.3915 9.55201 13.2707 9.67401 13.2707C9.79601 13.2707 9.79601 13.15 9.91901 13.15C10.042 13.15 10.164 13.0293 10.286 13.0293H12C12.0664 13.0212 12.1338 13.0278 12.1973 13.0487C12.2608 13.0695 12.3188 13.1042 12.367 13.15C12.489 13.15 12.489 13.15 12.612 13.2707C12.734 13.2707 12.857 13.3915 12.979 13.3915C13.101 13.3915 13.101 13.5122 13.224 13.5122C13.346 13.6329 13.469 13.6329 13.469 13.7546C13.591 13.7546 13.591 13.8753 13.714 13.8753L13.959 14.1177L14.081 14.2384C14.203 14.3592 14.203 14.4809 14.326 14.4809C14.326 14.6016 14.448 14.6016 14.448 14.7233C14.4943 14.771 14.5293 14.8284 14.5504 14.8912C14.5716 14.954 14.5782 15.0207 14.57 15.0864C14.57 15.2071 14.692 15.2071 14.692 15.3288V15.4506H26.947V3.57686C26.9548 3.3838 26.922 3.19124 26.8509 3.0113C26.7798 2.83137 26.6718 2.66794 26.5337 2.53132C26.3956 2.39469 26.2304 2.28783 26.0486 2.21744C25.8667 2.14706 25.6721 2.11468 25.477 2.12234H4.90001V3.3295H6.73701C6.89946 3.3295 7.05525 3.39335 7.17011 3.50701C7.28498 3.62066 7.34951 3.77481 7.34951 3.93555C7.34951 4.09628 7.28498 4.25044 7.17011 4.36409C7.05525 4.47775 6.89946 4.5416 6.73701 4.5416H4.90001V8.17792H6.73701C6.89946 8.17792 7.05525 8.24177 7.17011 8.35543C7.28498 8.46908 7.34951 8.62323 7.34951 8.78397C7.34951 8.9447 7.28498 9.09886 7.17011 9.21251C7.05525 9.32617 6.89946 9.39002 6.73701 9.39002H4.90001V11.8132Z" fill="black"/>
</svg>
