<svg width="33" height="32" viewBox="0 0 33 32" fill="none" xmlns="http://www.w3.org/2000/svg">
<path d="M5.63396 0.958008C5.53524 0.960099 5.4408 0.998244 5.3688 1.0651C5.2968 1.13196 5.25233 1.22281 5.24396 1.32016C5.24396 1.32016 5.18896 1.93462 5.04496 2.62725C4.94967 3.22296 4.73733 3.79443 4.41996 4.30936C3.89478 4.63092 3.31233 4.85022 2.70396 4.95548C1.99096 5.10786 1.35996 5.17712 1.35996 5.17712C1.25387 5.17712 1.15213 5.21882 1.07712 5.29305C1.0021 5.36727 0.959961 5.46794 0.959961 5.57291C0.959961 5.67788 1.0021 5.77855 1.07712 5.85278C1.15213 5.927 1.25387 5.9687 1.35996 5.9687C1.35996 5.9687 1.97896 6.03302 2.67996 6.18144C3.2828 6.28303 3.86008 6.49907 4.37996 6.81767C4.70639 7.33168 4.93074 7.90259 5.04096 8.49978C5.19796 9.19241 5.27096 9.8138 5.27096 9.8138C5.27096 9.91877 5.3131 10.0194 5.38812 10.0937C5.46313 10.1679 5.56487 10.2096 5.67096 10.2096C5.77705 10.2096 5.87879 10.1679 5.9538 10.0937C6.02882 10.0194 6.07096 9.91877 6.07096 9.8138C6.07096 9.8138 6.14496 9.19736 6.30396 8.49879C6.41545 7.89917 6.64039 7.32578 6.96696 6.80877C7.48019 6.48793 8.05138 6.26851 8.64896 6.16264C9.34896 6.01125 9.95696 5.94397 9.95696 5.94397C10.063 5.94318 10.1645 5.90072 10.2389 5.82594C10.3134 5.75116 10.3548 5.65018 10.354 5.54521C10.3532 5.44024 10.3103 5.33988 10.2347 5.26621C10.1591 5.19254 10.057 5.1516 9.95096 5.15239C9.95096 5.15239 9.32096 5.09104 8.60796 4.94658C7.99961 4.84959 7.41592 4.63725 6.88896 4.32123C6.56868 3.80666 6.35266 3.23534 6.25296 2.63912C6.10596 1.93858 6.04496 1.32016 6.04496 1.32016C6.03559 1.21975 5.98783 1.12667 5.91145 1.05991C5.83507 0.993163 5.73582 0.957776 5.63396 0.960976V0.958008ZM5.65096 3.51778C5.75102 4.02463 5.98221 4.49715 6.32196 4.88919C6.7466 5.24149 7.2573 5.47727 7.80296 5.57291C7.28087 5.67625 6.79413 5.9099 6.38896 6.25169C6.02134 6.68929 5.77343 7.21294 5.66896 7.77251C5.56434 7.21402 5.31486 6.692 4.94496 6.25763C4.52927 5.91065 4.03022 5.67551 3.49596 5.57489C4.0492 5.47495 4.56634 5.23343 4.99596 4.87434C5.32886 4.4856 5.5545 4.01829 5.65096 3.51778ZM18.602 3.68698C18.5032 3.68907 18.4088 3.72721 18.3368 3.79407C18.2648 3.86093 18.2203 3.95177 18.212 4.04912C18.212 4.04912 18.033 5.99641 17.583 8.21085C17.133 10.4253 16.354 12.9128 15.412 13.8509C14.47 14.7889 11.929 15.6012 9.66396 16.0861C7.39896 16.5709 5.40196 16.7866 5.40196 16.7866C5.29587 16.7866 5.19413 16.8283 5.11912 16.9025C5.0441 16.9768 5.00196 17.0774 5.00196 17.1824C5.00196 17.2874 5.0441 17.3881 5.11912 17.4623C5.19413 17.5365 5.29587 17.5782 5.40196 17.5782C5.40196 17.5782 7.36096 17.781 9.58896 18.252C11.817 18.723 14.322 19.5186 15.273 20.4536C16.224 21.3887 17.053 23.8772 17.553 26.0936C18.053 28.31 18.28 30.2583 18.28 30.2583C18.28 30.3633 18.3221 30.4639 18.3971 30.5382C18.4721 30.6124 18.5739 30.6541 18.68 30.6541C18.786 30.6541 18.8878 30.6124 18.9628 30.5382C19.0378 30.4639 19.08 30.3633 19.08 30.2583C19.08 30.2583 19.313 28.3081 19.818 26.0897C20.323 23.8713 21.154 21.3788 22.101 20.4368C23.048 19.4948 25.532 18.6884 27.741 18.2055C29.95 17.7227 31.892 17.5129 31.892 17.5129C31.998 17.5129 32.0998 17.4712 32.1748 17.397C32.2498 17.3227 32.292 17.2221 32.292 17.1171C32.292 17.0121 32.2498 16.9115 32.1748 16.8372C32.0998 16.763 31.998 16.7213 31.892 16.7213C31.892 16.7213 29.898 16.5294 27.634 16.0683C25.37 15.6072 22.834 14.8205 21.883 13.8914C20.932 12.9623 20.14 10.4629 19.675 8.23855C19.21 6.01422 19.017 4.05407 19.017 4.05407C19.0076 3.95349 18.9597 3.86026 18.8831 3.79348C18.8065 3.72671 18.707 3.69143 18.605 3.69489L18.602 3.68698ZM18.621 6.8711C18.707 7.38563 18.762 7.81308 18.883 8.39291C19.358 10.6687 20.053 13.2097 21.312 14.4495C22.571 15.6893 25.157 16.375 27.468 16.845C28.121 16.9786 28.617 17.0429 29.185 17.1329C28.646 17.2319 28.185 17.2922 27.568 17.4298C25.31 17.9245 22.778 18.6359 21.53 19.8767C20.282 21.1175 19.547 23.6526 19.03 25.9125C18.872 26.6052 18.788 27.1425 18.681 27.7351C18.576 27.1415 18.494 26.6091 18.338 25.9175C17.828 23.6555 17.096 21.1235 15.838 19.8876C14.58 18.6518 12.036 17.9493 9.75896 17.4694C9.11896 17.3348 8.63496 17.2715 8.07796 17.1725C8.65696 17.0736 9.16596 17.0023 9.83296 16.8588C12.145 16.3641 14.733 15.6517 15.982 14.4059C17.231 13.1602 17.913 10.6242 18.372 8.36125C18.488 7.79131 18.538 7.37178 18.62 6.86418L18.621 6.8711ZM8.33096 22.1199C8.23224 22.122 8.1378 22.1601 8.0658 22.227C7.9938 22.2938 7.94933 22.3847 7.94096 22.482C7.94096 22.482 7.88396 23.0975 7.74096 23.7941C7.64546 24.3899 7.43278 24.9614 7.11496 25.4762C6.58986 25.7981 6.00741 26.0178 5.39896 26.1233C4.68596 26.2757 4.05396 26.3439 4.05396 26.3439C3.94787 26.3439 3.84613 26.3856 3.77112 26.4599C3.6961 26.5341 3.65396 26.6348 3.65396 26.7397C3.65396 26.8447 3.6961 26.9454 3.77112 27.0196C3.84613 27.0938 3.94787 27.1355 4.05396 27.1355C4.05396 27.1355 4.67296 27.1998 5.37396 27.3483C5.9768 27.4498 6.55408 27.6659 7.07396 27.9845C7.40053 28.4984 7.62488 29.0694 7.73496 29.6666C7.89196 30.3592 7.96396 30.9796 7.96396 30.9796C7.96396 31.0846 8.0061 31.1853 8.08112 31.2595C8.15613 31.3337 8.25787 31.3754 8.36396 31.3754C8.47005 31.3754 8.57179 31.3337 8.6468 31.2595C8.72182 31.1853 8.76396 31.0846 8.76396 30.9796C8.76396 30.9796 8.83696 30.3632 8.99596 29.6646C9.10749 29.065 9.33243 28.4916 9.65896 27.9746C10.1723 27.6541 10.7435 27.435 11.341 27.3295C12.041 27.1781 12.65 27.1098 12.65 27.1098C12.7025 27.1094 12.7544 27.0988 12.8028 27.0785C12.8512 27.0583 12.8951 27.0288 12.9319 26.9918C12.9688 26.9547 12.9979 26.9109 13.0177 26.8627C13.0374 26.8146 13.0474 26.763 13.047 26.711C13.0466 26.6591 13.0358 26.6077 13.0154 26.5598C12.9949 26.5119 12.9651 26.4685 12.9277 26.432C12.8903 26.3956 12.8459 26.3667 12.7973 26.3472C12.7486 26.3277 12.6965 26.3178 12.644 26.3182C12.644 26.3182 12.014 26.2579 11.301 26.1124C10.6948 26.0137 10.1136 25.8003 9.58896 25.4841C9.26842 24.9696 9.05207 24.3983 8.95196 23.802C8.80496 23.1014 8.74496 22.482 8.74496 22.482C8.73558 22.3814 8.68768 22.2882 8.61109 22.2214C8.53449 22.1547 8.43499 22.1194 8.33296 22.1229L8.33096 22.1199ZM8.34796 24.6767C8.44785 25.1839 8.67906 25.6568 9.01896 26.0491C9.44391 26.4013 9.955 26.6368 10.501 26.7318C9.9793 26.8364 9.49327 27.071 9.08896 27.4136C8.72073 27.85 8.47179 28.3726 8.36596 28.9314C8.26131 28.3732 8.01182 27.8515 7.64196 27.4175C7.22548 27.0688 6.72494 26.8326 6.18896 26.7318C6.74202 26.6319 7.25911 26.3908 7.68896 26.0323C8.02393 25.6431 8.25132 25.1747 8.34896 24.6727L8.34796 24.6767Z" fill="black"/>
</svg>
