<svg width="33" height="33" viewBox="0 0 33 33" fill="none" xmlns="http://www.w3.org/2000/svg">
<path d="M20.3639 9.60457C18.5547 9.59523 16.7682 10.0035 15.1463 10.7969C13.5245 11.5903 12.1119 12.747 11.0209 14.1751C9.92988 15.6032 9.19045 17.2633 8.86135 19.0237C8.53226 20.784 8.62255 22.596 9.12507 24.3158C9.62759 26.0356 10.5285 27.6157 11.7562 28.9307C12.9839 30.2457 14.5046 31.2592 16.1975 31.8909C17.8904 32.5226 19.7088 32.7549 21.5083 32.5695C23.3079 32.3841 25.0389 31.7861 26.564 30.8228L31.005 32.5802C31.1371 32.6324 31.2818 32.6452 31.4211 32.6169C31.5605 32.5886 31.6884 32.5204 31.789 32.4209C31.8896 32.3214 31.9585 32.1948 31.9871 32.0569C32.0157 31.919 32.0028 31.7758 31.95 31.6451L30.1779 27.2617C31.2999 25.5244 31.9282 23.5201 31.9969 21.4595C32.0655 19.3989 31.5719 17.3581 30.568 15.5514C29.5642 13.7448 28.087 12.239 26.2918 11.1924C24.4966 10.1458 22.4496 9.59696 20.366 9.60357L20.3639 9.60457ZM20.3639 11.0443C22.2167 11.0441 24.0344 11.5441 25.6211 12.4906C27.2079 13.437 28.5035 14.7939 29.3685 16.4151C30.2334 18.0363 30.6349 19.8603 30.5296 21.6906C30.4243 23.5209 29.8162 25.288 28.771 26.8016C28.7036 26.8991 28.6615 27.0114 28.6485 27.1288C28.6354 27.2461 28.6517 27.3648 28.696 27.4745L29.968 30.621L26.776 29.3574C26.6652 29.3137 26.5452 29.2975 26.4266 29.3105C26.308 29.3234 26.1944 29.365 26.096 29.4316C24.7796 30.3202 23.2708 30.8905 21.691 31.0966C20.1112 31.3027 18.5045 31.1389 17.0004 30.6183C15.4963 30.0977 14.1368 29.2349 13.0313 28.0994C11.9257 26.9638 11.1052 25.5873 10.6356 24.0806C10.166 22.5739 10.0605 20.9792 10.3277 19.4248C10.5949 17.8704 11.2272 16.3998 12.1737 15.1315C13.1203 13.8631 14.3546 12.8324 15.7774 12.1223C17.2001 11.4122 18.7715 11.0426 20.3649 11.0433L20.3639 11.0443Z" fill="black"/>
<path d="M11.636 0.968751C8.91979 0.967459 6.28878 1.90684 4.19925 3.62399C2.10972 5.34113 0.693459 7.72774 0.196076 10.3699C-0.301306 13.0121 0.151563 15.7432 1.47615 18.0896C2.80073 20.436 4.91348 22.2496 7.448 23.2161C7.3563 22.6625 7.30119 22.1036 7.283 21.5429C5.19303 20.5693 3.50111 18.9196 2.4866 16.8662C1.47209 14.8127 1.19567 12.4783 1.70299 10.2484C2.2103 8.01857 3.47101 6.02656 5.27694 4.60134C7.08287 3.17612 9.32602 2.40293 11.636 2.40943C13.5584 2.41115 15.4406 2.95448 17.0624 3.97587C18.6842 4.99726 19.9785 6.45448 20.794 8.17707C21.3607 8.19508 21.9255 8.24961 22.485 8.34033C21.639 6.17229 20.1502 4.30807 18.214 2.99248C16.2778 1.67689 13.9848 0.971439 11.636 0.968751Z" fill="black"/>
<path d="M21.091 21.1188C21.091 21.261 21.0483 21.4001 20.9684 21.5184C20.8886 21.6367 20.775 21.7289 20.6422 21.7833C20.5093 21.8378 20.3632 21.852 20.2221 21.8243C20.0811 21.7965 19.9516 21.728 19.8499 21.6274C19.7482 21.5268 19.679 21.3986 19.6509 21.2591C19.6229 21.1195 19.6373 20.9749 19.6923 20.8435C19.7473 20.712 19.8405 20.5997 19.9601 20.5206C20.0796 20.4416 20.2202 20.3994 20.364 20.3994C20.5568 20.3994 20.7417 20.4752 20.878 20.6101C21.0144 20.745 21.091 20.928 21.091 21.1188Z" fill="black"/>
<path d="M16.7269 21.1188C16.7269 21.261 16.6843 21.4001 16.6044 21.5184C16.5245 21.6367 16.411 21.7289 16.2782 21.7833C16.1453 21.8378 15.9991 21.852 15.8581 21.8243C15.7171 21.7965 15.5876 21.728 15.4859 21.6274C15.3842 21.5268 15.315 21.3986 15.2869 21.2591C15.2589 21.1195 15.2733 20.9749 15.3283 20.8435C15.3833 20.712 15.4765 20.5997 15.5961 20.5206C15.7156 20.4416 15.8562 20.3994 15.9999 20.3994C16.1928 20.3994 16.3777 20.4752 16.514 20.6101C16.6504 20.745 16.7269 20.928 16.7269 21.1188Z" fill="black"/>
<path d="M25.454 21.1188C25.454 21.261 25.4114 21.4001 25.3315 21.5184C25.2516 21.6367 25.1381 21.7289 25.0052 21.7833C24.8724 21.8378 24.7262 21.852 24.5852 21.8243C24.4441 21.7965 24.3146 21.728 24.2129 21.6274C24.1113 21.5268 24.042 21.3986 24.014 21.2591C23.9859 21.1195 24.0003 20.9749 24.0553 20.8435C24.1104 20.712 24.2035 20.5997 24.3231 20.5206C24.4427 20.4416 24.5832 20.3994 24.727 20.3994C24.9198 20.3994 25.1047 20.4752 25.2411 20.6101C25.3774 20.745 25.454 20.928 25.454 21.1188Z" fill="black"/>
</svg>
