<svg width="32" height="32" viewBox="0 0 32 32" fill="none" xmlns="http://www.w3.org/2000/svg">
<path d="M8.45095 19.7922C8.60723 18.4983 9.1379 17.7738 10.1379 17.0312C11.5688 16.0254 13.3561 16.5943 13.3561 16.5943V13.2192C13.7907 13.2081 14.2254 13.2338 14.6551 13.2961V17.6396C14.6551 17.6396 12.8683 17.0707 11.4375 18.077C10.438 18.8191 9.90623 19.5441 9.7505 20.838C9.74562 21.5406 9.87747 22.459 10.4847 23.2531C10.3345 23.1762 10.1815 23.0884 10.0256 22.99C8.68807 22.0918 8.44444 20.7444 8.45095 19.7922ZM22.0352 6.97849C21.0509 5.8999 20.6786 4.8109 20.5441 4.0459H21.7823C21.7823 4.0459 21.5354 6.05175 23.3347 8.02433L23.3597 8.05085C22.8747 7.74581 22.43 7.38575 22.0352 6.97849ZM28 10.0364V14.2926C28 14.2926 26.42 14.2307 25.2507 13.9332C23.6179 13.5172 22.5685 12.879 22.5685 12.879C22.5685 12.879 21.8436 12.424 21.785 12.3923V21.1812C21.785 21.6706 21.651 22.8927 21.2424 23.912C20.709 25.2455 19.8859 26.1207 19.7345 26.2996C19.7345 26.2996 18.7334 27.4827 16.9672 28.2795C15.3752 28.9982 13.9774 28.98 13.5596 28.9982C13.5596 28.9982 11.1434 29.0939 8.96915 27.6809C8.49898 27.3694 8.06011 27.0167 7.6582 26.6273L7.66906 26.635C9.84383 28.048 12.2595 27.9524 12.2595 27.9524C12.6779 27.9342 14.0756 27.9524 15.6671 27.2336C17.4317 26.4369 18.4344 25.2538 18.4344 25.2538C18.5842 25.0749 19.4111 24.1996 19.9423 22.8657C20.3498 21.8469 20.4849 20.6242 20.4849 20.1349V11.347C20.5435 11.3792 21.2679 11.8343 21.2679 11.8343C21.2679 11.8343 22.3179 12.4729 23.9506 12.8884C25.1204 13.1859 26.7 13.2478 26.7 13.2478V9.91265C27.2404 10.0338 27.7011 10.0666 28 10.0364Z" fill="#EE1D52"/>
<path d="M26.7004 9.91265V13.2467C26.7004 13.2467 25.1208 13.1848 23.951 12.8874C22.3183 12.4713 21.2683 11.8332 21.2683 11.8332C21.2683 11.8332 20.5439 11.3782 20.4853 11.3459V20.1359C20.4853 20.6253 20.3513 21.8479 19.9427 22.8667C19.4093 24.2007 18.5862 25.0759 18.4348 25.2548C18.4348 25.2548 17.4332 26.4379 15.6675 27.2347C14.076 27.9534 12.6783 27.9352 12.2599 27.9534C12.2599 27.9534 9.84424 28.0491 7.66946 26.6361L7.65861 26.6283C7.429 26.406 7.21287 26.1712 7.01128 25.9252C6.31728 25.079 5.89188 24.0785 5.78498 23.7929C5.7848 23.7917 5.7848 23.7905 5.78498 23.7893C5.61298 23.2932 5.2516 22.1017 5.30098 20.9477C5.38834 18.9117 6.10458 17.662 6.29395 17.3489C6.79549 16.4952 7.44779 15.7313 8.22184 15.0914C8.90489 14.5391 9.67911 14.0997 10.5127 13.7912C11.4139 13.429 12.3789 13.2348 13.356 13.2192V16.5943C13.356 16.5943 11.5686 16.0275 10.1383 17.0312C9.13831 17.7738 8.60763 18.4983 8.45136 19.7922C8.44485 20.7444 8.68848 22.0918 10.0249 22.9905C10.1808 23.0893 10.3339 23.177 10.484 23.2536C10.7175 23.5571 11.0016 23.8216 11.325 24.0363C12.6305 24.8627 13.7244 24.9204 15.1233 24.3837C16.056 24.0249 16.7582 23.2162 17.0837 22.3201C17.2883 21.7606 17.2856 21.1973 17.2856 20.6149V4.0459H20.5412C20.6758 4.8109 21.048 5.8999 22.0323 6.97849C22.4272 7.38575 22.8719 7.74581 23.3568 8.05085C23.5001 8.19907 24.2326 8.93182 25.1729 9.38167C25.6592 9.6142 26.1717 9.79236 26.7004 9.91265Z" fill="black"/>
<path d="M4.48926 22.7568V22.7594L4.57004 22.9784C4.56076 22.9529 4.53074 22.8754 4.48926 22.7568Z" fill="#69C9D0"/>
<path d="M10.5128 13.7916C9.67919 14.1002 8.90498 14.5396 8.22192 15.0918C7.44763 15.7332 6.79548 16.4987 6.29458 17.354C6.10521 17.6661 5.38897 18.9168 5.30161 20.9528C5.25223 22.1068 5.61361 23.2983 5.78561 23.7944C5.78543 23.7956 5.78543 23.7968 5.78561 23.798C5.89413 24.081 6.31791 25.0815 7.01191 25.9303C7.2135 26.1763 7.42963 26.4111 7.65924 26.6334C6.92357 26.1457 6.26746 25.5562 5.71236 24.8839C5.02433 24.0451 4.60001 23.0549 4.48932 22.7626C4.48919 22.7605 4.48919 22.7584 4.48932 22.7564V22.7527C4.31677 22.2571 3.95431 21.0651 4.00477 19.9096C4.09213 17.8736 4.80838 16.6239 4.99775 16.3108C5.4985 15.4553 6.15067 14.6898 6.92509 14.0486C7.608 13.4961 8.38225 13.0567 9.21598 12.7484C9.73602 12.5416 10.2778 12.3891 10.8319 12.2934C11.6669 12.1537 12.5198 12.1415 13.3588 12.2575V13.2196C12.3808 13.2349 11.4148 13.4291 10.5128 13.7916Z" fill="#69C9D0"/>
<path d="M20.544 4.04635H17.2884V20.6159C17.2884 21.1983 17.2884 21.76 17.0865 22.3211C16.7577 23.2167 16.0583 24.0253 15.1261 24.3842C13.7267 24.923 12.6328 24.8632 11.3278 24.0368C11.0039 23.823 10.719 23.5594 10.4846 23.2567C11.5964 23.8251 12.5916 23.8152 13.8244 23.341C14.756 22.9821 15.4565 22.1734 15.7843 21.2774C15.9894 20.7178 15.9867 20.1546 15.9867 19.5726V3H20.4822C20.4822 3 20.4317 3.41188 20.544 4.04635ZM26.7005 8.99104V9.9131C26.1727 9.79263 25.6611 9.61447 25.1757 9.38213C24.2354 8.93228 23.5029 8.19952 23.3596 8.0513C23.5259 8.1559 23.6983 8.25106 23.8762 8.33629C25.0195 8.88339 26.1454 9.04669 26.7005 8.99104Z" fill="#69C9D0"/>
</svg>
